<svg width="60" height="60" viewBox="0 0 60 60" fill="none" xmlns="http://www.w3.org/2000/svg">
<path d="M56.75 35.75L54.25 38.25L49.25 33.25L51.75 30.75C52 30.5 52.25 30.25 52.75 30.25C53 30.25 53.5 30.5 53.75 30.75L57 34C57.25 34.5 57.25 35.25 56.75 35.75ZM32.5 49.75V55H37.75L53 39.75L48 34.75L32.5 49.75ZM52.5 12.5C52.5 9.75 50.25 7.5 47.5 7.5H12.5C9.75 7.5 7.5 9.75 7.5 12.5V47.5C7.5 50.25 9.75 52.5 12.5 52.5H27.5V47.75L30.25 45H12.5L21.25 33.75L27.5 41.25L36.25 30L40.25 35.25L52.5 22.75V12.5Z" fill="white"/>
</svg>
