<svg width="20" height="20" viewBox="0 0 20 20" fill="none" xmlns="http://www.w3.org/2000/svg">
<path fill-rule="evenodd" clip-rule="evenodd" d="M12.5568 3.86364H14.6023C14.9788 3.86364 15.2841 4.1689 15.2841 4.54545H4.375C4.375 4.1689 4.68026 3.86364 5.05682 3.86364H7.10227C7.10227 3.11052 7.71279 2.5 8.46591 2.5H11.1932C11.9463 2.5 12.5568 3.11052 12.5568 3.86364V3.86364ZM5.02082 5.17315H14.6142L14.1356 16.6409C14.1356 16.6409 13.9551 17.5 13.2741 17.5H6.38417C5.7035 17.5 5.52293 16.6409 5.52293 16.6409L5.02082 5.17315ZM12.4886 6.59093H11.8068L11.4659 16.4348H12.1477L12.4886 6.59093ZM8.12491 16.4348L7.78412 6.59093H7.10219L7.44298 16.4348H8.12491ZM9.48855 6.59093V16.4348H10.1704V6.59093H9.48855Z" fill="#1E1E1E"/>
<mask id="mask0_16506_71" style="mask-type:alpha" maskUnits="userSpaceOnUse" x="4" y="2" width="12" height="16">
<path fill-rule="evenodd" clip-rule="evenodd" d="M12.5568 3.86364H14.6023C14.9788 3.86364 15.2841 4.1689 15.2841 4.54545H4.375C4.375 4.1689 4.68026 3.86364 5.05682 3.86364H7.10227C7.10227 3.11052 7.71279 2.5 8.46591 2.5H11.1932C11.9463 2.5 12.5568 3.11052 12.5568 3.86364V3.86364ZM5.02082 5.17315H14.6142L14.1356 16.6409C14.1356 16.6409 13.9551 17.5 13.2741 17.5H6.38417C5.7035 17.5 5.52293 16.6409 5.52293 16.6409L5.02082 5.17315ZM12.4886 6.59093H11.8068L11.4659 16.4348H12.1477L12.4886 6.59093ZM8.12491 16.4348L7.78412 6.59093H7.10219L7.44298 16.4348H8.12491ZM9.48855 6.59093V16.4348H10.1704V6.59093H9.48855Z" fill="white"/>
</mask>
<g mask="url(#mask0_16506_71)">
</g>
</svg>
